<svg width="140" height="140" viewBox="0 0 140 140" fill="none" xmlns="http://www.w3.org/2000/svg">
<path d="M16.6423 49.0168L63.309 16.3502C67.326 13.5382 72.6727 13.5382 76.6897 16.3502L123.356 49.0168C126.475 51.2 128.333 54.7676 128.333 58.5745V116.667C128.333 123.11 123.109 128.334 116.666 128.334H23.3327C16.8894 128.334 11.666 123.11 11.666 116.667V58.5745C11.666 54.7675 13.5235 51.2 16.6423 49.0168Z" fill="#A1F394"/>
<path fill-rule="evenodd" clip-rule="evenodd" d="M89.3986 79.6993C89.3986 85.0228 87.6433 89.9364 84.68 93.8928C84.6877 93.9003 84.6955 93.9077 84.7032 93.9153C84.7125 93.9244 84.7218 93.9336 84.731 93.9428L96.701 105.913C98.0231 107.235 98.0231 109.379 96.701 110.701C95.3788 112.023 93.2351 112.023 91.913 110.701L79.943 98.7308C79.9262 98.7139 79.9095 98.6969 79.8931 98.6798C75.9366 101.643 71.0229 103.399 65.6993 103.399C52.6105 103.399 42 92.788 42 79.6993C42 66.6105 52.6105 56 65.6993 56C78.788 56 89.3986 66.6105 89.3986 79.6993ZM65.6993 96.6272C75.0484 96.6272 82.6274 89.0483 82.6274 79.6992C82.6274 70.3501 75.0484 62.7711 65.6993 62.7711C56.3502 62.7711 48.7713 70.3501 48.7713 79.6992C48.7713 89.0483 56.3502 96.6272 65.6993 96.6272Z" fill="#303030"/>
</svg>
