<svg width="68" height="67" viewBox="0 0 68 67" fill="none" xmlns="http://www.w3.org/2000/svg">
<path fill-rule="evenodd" clip-rule="evenodd" d="M0.666748 7.33366C0.666748 3.65176 3.65152 0.666992 7.33341 0.666992H60.6667C64.3486 0.666992 67.3334 3.65176 67.3334 7.33366V60.667V64.0976C67.3334 65.5844 65.7688 66.5514 64.439 65.8865L54.0001 60.667H7.33342C3.65152 60.667 0.666748 57.6822 0.666748 54.0003V7.33366ZM17.3334 14.0003C15.4925 14.0003 14.0001 15.4927 14.0001 17.3337C14.0001 19.1746 15.4925 20.667 17.3334 20.667H50.6667C52.5077 20.667 54.0001 19.1746 54.0001 17.3337C54.0001 15.4927 52.5077 14.0003 50.6667 14.0003H17.3334ZM17.3334 27.3337C15.4925 27.3337 14.0001 28.826 14.0001 30.667C14.0001 32.5079 15.4925 34.0003 17.3334 34.0003H37.3334C39.1744 34.0003 40.6667 32.5079 40.6667 30.667C40.6667 28.826 39.1744 27.3337 37.3334 27.3337H17.3334ZM14.0001 44.0003C14.0001 42.1594 15.4925 40.667 17.3334 40.667H44.0001C45.841 40.667 47.3334 42.1594 47.3334 44.0003C47.3334 45.8413 45.841 47.3337 44.0001 47.3337H17.3334C15.4925 47.3337 14.0001 45.8413 14.0001 44.0003Z" fill="#A0A0A0"/>
</svg>
