<svg width="18" height="15" viewBox="0 0 18 15" fill="none" xmlns="http://www.w3.org/2000/svg">
<path d="M3.99935 11.8337H4.49935V11.5317L4.23204 11.3911L3.99935 11.8337ZM4.31029 14.4593L4.03294 14.0433H4.03294L4.31029 14.4593ZM6.80568 12.7957L6.89925 12.3045L6.69843 12.2663L6.52833 12.3797L6.80568 12.7957ZM16.8327 7.16659C16.8327 8.56948 16.021 9.89068 14.6052 10.8818C13.1909 11.8717 11.2105 12.4999 8.99935 12.4999V13.4999C11.3905 13.4999 13.5768 12.8223 15.1786 11.701C16.7789 10.5808 17.8327 8.98535 17.8327 7.16659H16.8327ZM8.99935 1.83325C11.2105 1.83325 13.1909 2.46144 14.6052 3.45141C16.021 4.44249 16.8327 5.76369 16.8327 7.16659H17.8327C17.8327 5.34782 16.7789 3.75235 15.1786 2.63218C13.5768 1.5109 11.3905 0.833252 8.99935 0.833252V1.83325ZM1.16602 7.16659C1.16602 5.76369 1.9777 4.44249 3.39352 3.45141C4.80777 2.46144 6.78817 1.83325 8.99935 1.83325V0.833252C6.60816 0.833252 4.42189 1.5109 2.82006 2.63218C1.21981 3.75235 0.166016 5.34782 0.166016 7.16659H1.16602ZM4.23204 11.3911C2.30806 10.3795 1.16602 8.82648 1.16602 7.16659H0.166016C0.166016 9.3236 1.64248 11.1594 3.76666 12.2762L4.23204 11.3911ZM3.49935 11.8337V14.2929H4.49935V11.8337H3.49935ZM3.49935 14.2929C3.49935 14.852 4.12245 15.1854 4.58764 14.8753L4.03294 14.0433C4.2323 13.9104 4.49935 14.0533 4.49935 14.2929H3.49935ZM4.58764 14.8753L7.08303 13.2117L6.52833 12.3797L4.03294 14.0433L4.58764 14.8753ZM8.99935 12.4999C8.27125 12.4999 7.56709 12.4318 6.89925 12.3045L6.71211 13.2869C7.44218 13.4259 8.20902 13.4999 8.99935 13.4999V12.4999Z" fill="#A0A0A0"/>
</svg>
