<svg width="44" height="44" viewBox="0 0 44 44" fill="none" xmlns="http://www.w3.org/2000/svg">
<rect width="44" height="44" rx="22" fill="#ECECEC"/>
<path fill-rule="evenodd" clip-rule="evenodd" d="M13.2191 16C12.588 16 12.1148 16.5773 12.2385 17.1961L15.8385 35.1961C15.932 35.6635 16.3424 36 16.8191 36H27.1795C27.6562 36 28.0666 35.6635 28.1601 35.1961L31.7601 17.1961C31.8838 16.5773 31.4105 16 30.7795 16H13.2191ZM17.9993 21C17.447 21 16.9993 21.4477 16.9993 22V30C16.9993 30.5523 17.447 31 17.9993 31C18.5516 31 18.9993 30.5523 18.9993 30V22C18.9993 21.4477 18.5516 21 17.9993 21ZM20.9993 22C20.9993 21.4477 21.447 21 21.9993 21C22.5516 21 22.9993 21.4477 22.9993 22V30C22.9993 30.5523 22.5516 31 21.9993 31C21.447 31 20.9993 30.5523 20.9993 30V22ZM25.9993 21C25.447 21 24.9993 21.4477 24.9993 22V30C24.9993 30.5523 25.447 31 25.9993 31C26.5516 31 26.9993 30.5523 26.9993 30V22C26.9993 21.4477 26.5516 21 25.9993 21Z" fill="#A0A0A0"/>
<path fill-rule="evenodd" clip-rule="evenodd" d="M16.6 10C16.2686 10 16 10.2686 16 10.6V12H12.6C12.2686 12 12 12.2686 12 12.6V13.4C12 13.7314 12.2686 14 12.6 14H31.4C31.7314 14 32 13.7314 32 13.4V12.6C32 12.2686 31.7314 12 31.4 12H28V10.6C28 10.2686 27.7314 10 27.4 10H16.6Z" fill="#A0A0A0"/>
</svg>
