<svg width="30" height="27" viewBox="0 0 30 27" fill="none" xmlns="http://www.w3.org/2000/svg">
<path d="M17.3565 3.45189L16.6494 2.74478V2.74478L17.3565 3.45189ZM14.9995 5.80891L14.2923 6.51602L14.9995 7.22313L15.7066 6.51602L14.9995 5.80891ZM26.7846 3.45189L27.4917 2.74478V2.74478L26.7846 3.45189ZM26.7846 12.88L27.4917 13.5871L26.7846 12.88ZM14.9995 24.6651L14.2923 25.3722L14.9995 26.0793L15.7066 25.3722L14.9995 24.6651ZM3.21434 12.88L3.92145 12.1729L3.21434 12.88ZM3.21434 3.45189L2.50723 2.74478L3.21434 3.45189ZM12.6424 3.45189L11.9353 4.159L12.6424 3.45189ZM16.6494 2.74478L14.2923 5.10181L15.7066 6.51602L18.0636 4.159L16.6494 2.74478ZM27.4917 2.74478C24.4977 -0.249237 19.6434 -0.249238 16.6494 2.74478L18.0636 4.159C20.2766 1.94602 23.8645 1.94602 26.0775 4.159L27.4917 2.74478ZM27.4917 13.5871C30.4857 10.5931 30.4857 5.7388 27.4917 2.74478L26.0775 4.159C28.2904 6.37197 28.2904 9.9599 26.0775 12.1729L27.4917 13.5871ZM25.1347 15.9441L27.4917 13.5871L26.0775 12.1729L23.7204 14.5299L25.1347 15.9441ZM15.7066 25.3722L25.1347 15.9441L23.7204 14.5299L14.2923 23.958L15.7066 25.3722ZM4.86426 15.9441L14.2923 25.3722L15.7066 23.958L6.27847 14.5299L4.86426 15.9441ZM2.50723 13.5871L4.86426 15.9441L6.27847 14.5299L3.92145 12.1729L2.50723 13.5871ZM2.50723 2.74478C-0.486786 5.7388 -0.486786 10.5931 2.50723 13.5871L3.92145 12.1729C1.70848 9.9599 1.70848 6.37197 3.92145 4.159L2.50723 2.74478ZM13.3495 2.74478C10.3555 -0.249237 5.50125 -0.249237 2.50723 2.74478L3.92145 4.159C6.13442 1.94602 9.72235 1.94602 11.9353 4.159L13.3495 2.74478ZM15.7066 5.10181L13.3495 2.74478L11.9353 4.159L14.2923 6.51602L15.7066 5.10181Z" fill="#A0A0A0"/>
</svg>
