<svg width="28" height="28" viewBox="0 0 28 28" fill="none" xmlns="http://www.w3.org/2000/svg">
<rect width="28" height="28" fill="white"/>
<path d="M2.33301 10.4997C2.33301 9.85534 2.85534 9.33301 3.49967 9.33301H24.4997C25.144 9.33301 25.6663 9.85534 25.6663 10.4997V17.4997C25.6663 18.144 25.144 18.6663 24.4997 18.6663H3.49967C2.85534 18.6663 2.33301 18.144 2.33301 17.4997V10.4997Z" fill="#A0A0A0"/>
<path d="M7 16.333H21V22.1663C21 22.8107 20.4777 23.333 19.8333 23.333H8.16667C7.52233 23.333 7 22.8107 7 22.1663V16.333Z" fill="white"/>
<path fill-rule="evenodd" clip-rule="evenodd" d="M6.41699 15.75H21.5837V22.1667C21.5837 23.1332 20.8002 23.9167 19.8337 23.9167H8.16699C7.20049 23.9167 6.41699 23.1332 6.41699 22.1667V15.75ZM7.58366 16.9167V22.1667C7.58366 22.4888 7.84483 22.75 8.16699 22.75H19.8337C20.1558 22.75 20.417 22.4888 20.417 22.1667V16.9167H7.58366Z" fill="#A0A0A0"/>
<path d="M7 10.5H21V7C21 6.35567 20.4777 5.83333 19.8333 5.83333H8.16667C7.52233 5.83333 7 6.35567 7 7V10.5Z" fill="white"/>
<path fill-rule="evenodd" clip-rule="evenodd" d="M6.41699 11.083H21.5837V6.99967C21.5837 6.03318 20.8002 5.24967 19.8337 5.24967H8.16699C7.20049 5.24967 6.41699 6.03318 6.41699 6.99967V11.083ZM7.58366 9.91634V6.99967C7.58366 6.67751 7.84483 6.41634 8.16699 6.41634H19.8337C20.1558 6.41634 20.417 6.67751 20.417 6.99967V9.91634H7.58366Z" fill="#A0A0A0"/>
<path fill-rule="evenodd" clip-rule="evenodd" d="M9.91699 18.6663C9.91699 18.3442 10.1782 18.083 10.5003 18.083H17.5003C17.8225 18.083 18.0837 18.3442 18.0837 18.6663C18.0837 18.9885 17.8225 19.2497 17.5003 19.2497H10.5003C10.1782 19.2497 9.91699 18.9885 9.91699 18.6663Z" fill="#A0A0A0"/>
<path fill-rule="evenodd" clip-rule="evenodd" d="M9.91699 21.0003C9.91699 20.6782 10.1782 20.417 10.5003 20.417H17.5003C17.8225 20.417 18.0837 20.6782 18.0837 21.0003C18.0837 21.3225 17.8225 21.5837 17.5003 21.5837H10.5003C10.1782 21.5837 9.91699 21.3225 9.91699 21.0003Z" fill="#A0A0A0"/>
</svg>
