<svg width="140" height="140" viewBox="0 0 140 140" fill="none" xmlns="http://www.w3.org/2000/svg">
<path fill-rule="evenodd" clip-rule="evenodd" d="M66.0188 23.501C64.0483 18.1407 68.482 14.623 72.916 11.667C72.6577 12.4419 72.4147 13.1633 72.1869 13.8396C70.7379 18.1412 69.9059 20.611 69.691 23.3347C69.7937 23.334 69.8965 23.3337 69.9994 23.3337C91.7761 23.3337 110.069 38.2498 115.219 58.4226C115.693 58.3639 116.176 58.3337 116.666 58.3337C123.109 58.3337 128.333 63.557 128.333 70.0003C128.333 76.4436 123.109 81.667 116.666 81.667C116.176 81.667 115.693 81.6368 115.219 81.5781C114.899 82.8308 114.528 84.0632 114.11 85.273C110.8 85.3976 107.527 86.7232 105 89.2499L104.999 89.2488C99.6839 83.9335 91.066 83.9337 85.7505 89.2491C80.4351 94.5646 80.4349 103.183 85.7502 108.498L85.7512 108.499L85.751 108.499L89.6106 112.359C83.6483 115.124 77.004 116.667 69.9994 116.667C48.2225 116.667 29.9296 101.751 24.7801 81.5781C24.3059 81.6368 23.8228 81.667 23.3327 81.667C16.8894 81.667 11.666 76.4436 11.666 70.0003C11.666 63.557 16.8894 58.3337 23.3327 58.3337C23.8228 58.3337 24.3059 58.3639 24.7801 58.4226C29.6126 39.4919 46.0198 25.1904 66.0188 23.501ZM48.4157 67.0834C48.4157 63.2174 51.5497 60.0834 55.4157 60.0834C59.2817 60.0834 62.4157 63.2174 62.4157 67.0834C62.4157 68.0499 63.1992 68.8334 64.1657 68.8334C65.1322 68.8334 65.9157 68.0499 65.9157 67.0834C65.9157 61.2844 61.2147 56.5834 55.4157 56.5834C49.6167 56.5834 44.9157 61.2844 44.9157 67.0834C44.9157 68.0499 45.6992 68.8334 46.6657 68.8334C47.6322 68.8334 48.4157 68.0499 48.4157 67.0834ZM77.5824 67.0834C77.5824 63.2174 80.7164 60.0834 84.5824 60.0834C88.4484 60.0834 91.5824 63.2174 91.5824 67.0834C91.5824 68.0499 92.3659 68.8334 93.3324 68.8334C94.2989 68.8334 95.0824 68.0499 95.0824 67.0834C95.0824 61.2844 90.3814 56.5834 84.5824 56.5834C78.7834 56.5834 74.0824 61.2844 74.0824 67.0834C74.0824 68.0499 74.8659 68.8334 75.8324 68.8334C76.7989 68.8334 77.5824 68.0499 77.5824 67.0834ZM118.749 92.4999C122.546 96.2965 122.545 102.452 118.749 106.249L104.999 119.998L91.2499 106.249C87.4533 102.452 87.4534 96.2962 91.2502 92.4995C95.047 88.7027 101.203 89.7034 105 93.5C108.797 89.7034 114.952 88.7033 118.749 92.4999Z" fill="#A1F394"/>
</svg>
