<svg width="28" height="28" viewBox="0 0 28 28" fill="none" xmlns="http://www.w3.org/2000/svg">
<path fill-rule="evenodd" clip-rule="evenodd" d="M13.1943 19.1046C13.4676 18.8313 13.4676 18.3881 13.1943 18.1147C12.9209 17.8413 12.4777 17.8413 12.2043 18.1147L9.23448 21.0845C8.41437 21.9046 7.08473 21.9046 6.26463 21.0845C5.44453 20.2644 5.44453 18.9348 6.26463 18.1147L12.2043 12.175C13.0244 11.3549 14.3541 11.3549 15.1742 12.175C15.4475 12.4484 15.8908 12.4484 16.1641 12.175C16.4375 11.9016 16.4375 11.4584 16.1641 11.185C14.7973 9.8182 12.5812 9.8182 11.2144 11.185L5.27468 17.1247C3.90784 18.4916 3.90784 20.7076 5.27468 22.0745C6.64151 23.4413 8.85759 23.4413 10.2244 22.0745L13.1943 19.1046ZM14.1842 8.21519C13.9109 8.48856 13.9109 8.93177 14.1842 9.20514C14.4576 9.47851 14.9008 9.47851 15.1742 9.20514L18.144 6.23529C18.9641 5.41519 20.2938 5.41519 21.1139 6.23529C21.934 7.05539 21.934 8.38504 21.1139 9.20514L15.1742 15.1448C14.3541 15.9649 13.0244 15.9649 12.2043 15.1448C11.931 14.8715 11.4877 14.8715 11.2144 15.1448C10.941 15.4182 10.941 15.8614 11.2144 16.1348C12.5812 17.5016 14.7973 17.5016 16.1641 16.1348L22.1038 10.1951C23.4707 8.82825 23.4707 6.61218 22.1038 5.24534C20.737 3.87851 18.5209 3.87851 17.1541 5.24534L14.1842 8.21519Z" fill="#A0A0A0"/>
</svg>
