<svg width="120" height="120" viewBox="0 0 120 120" fill="none" xmlns="http://www.w3.org/2000/svg">
<path fill-rule="evenodd" clip-rule="evenodd" d="M32.5 15C32.5 10.8579 35.8579 7.5 40 7.5C44.1421 7.5 47.5 10.8579 47.5 15V25C47.5 29.1421 44.1421 32.5 40 32.5C35.8579 32.5 32.5 29.1421 32.5 25V15ZM40 12.5C38.6193 12.5 37.5 13.6193 37.5 15V25C37.5 26.3807 38.6193 27.5 40 27.5C41.3807 27.5 42.5 26.3807 42.5 25V15C42.5 13.6193 41.3807 12.5 40 12.5ZM72.5 15C72.5 10.8579 75.8579 7.5 80 7.5C84.1421 7.5 87.5 10.8579 87.5 15V25C87.5 29.1421 84.1421 32.5 80 32.5C75.8579 32.5 72.5 29.1421 72.5 25V15ZM80 12.5C78.6193 12.5 77.5 13.6193 77.5 15V25C77.5 26.3807 78.6193 27.5 80 27.5C81.3807 27.5 82.5 26.3807 82.5 25V15C82.5 13.6193 81.3807 12.5 80 12.5ZM20 22.5C13.0964 22.5 7.5 28.0964 7.5 35V105C7.5 111.904 13.0964 117.5 20 117.5H100C106.904 117.5 112.5 111.904 112.5 105V35C112.5 28.0964 106.904 22.5 100 22.5H98.4375C92.3969 22.5 87.5 27.3969 87.5 33.4375C87.5 36.7167 84.8417 39.375 81.5625 39.375H78.4375C75.1583 39.375 72.5 36.7167 72.5 33.4375C72.5 27.3969 67.6031 22.5 61.5625 22.5H58.4375C52.3969 22.5 47.5 27.3969 47.5 33.4375C47.5 36.7167 44.8417 39.375 41.5625 39.375H38.4375C35.1583 39.375 32.5 36.7167 32.5 33.4375C32.5 27.3969 27.6031 22.5 21.5625 22.5H20ZM12.5 35C12.5 30.8579 15.8579 27.5 20 27.5H21.5625C24.8417 27.5 27.5 30.1583 27.5 33.4375C27.5 39.4781 32.3969 44.375 38.4375 44.375H41.5625C47.6031 44.375 52.5 39.4781 52.5 33.4375C52.5 30.1583 55.1583 27.5 58.4375 27.5H61.5625C64.8417 27.5 67.5 30.1583 67.5 33.4375C67.5 39.4781 72.3969 44.375 78.4375 44.375H81.5625C87.6031 44.375 92.5 39.4781 92.5 33.4375C92.5 30.1583 95.1583 27.5 98.4375 27.5H100C104.142 27.5 107.5 30.8579 107.5 35V105C107.5 109.142 104.142 112.5 100 112.5H20C15.8579 112.5 12.5 109.142 12.5 105V35ZM38 62.5C34.9624 62.5 32.5 64.9624 32.5 68V72C32.5 75.0376 34.9624 77.5 38 77.5H42C45.0376 77.5 47.5 75.0376 47.5 72V68C47.5 64.9624 45.0376 62.5 42 62.5H38ZM37.5 68C37.5 67.7239 37.7239 67.5 38 67.5H42C42.2761 67.5 42.5 67.7239 42.5 68V72C42.5 72.2761 42.2761 72.5 42 72.5H38C37.7239 72.5 37.5 72.2761 37.5 72V68ZM57.5 68C57.5 67.7239 57.7239 67.5 58 67.5H62C62.2761 67.5 62.5 67.7239 62.5 68V72C62.5 72.2761 62.2761 72.5 62 72.5H58C57.7239 72.5 57.5 72.2761 57.5 72V68ZM58 62.5C54.9624 62.5 52.5 64.9624 52.5 68V72C52.5 75.0376 54.9624 77.5 58 77.5H62C65.0376 77.5 67.5 75.0376 67.5 72V68C67.5 64.9624 65.0376 62.5 62 62.5H58ZM78 62.5C74.9624 62.5 72.5 64.9624 72.5 68V72C72.5 75.0376 74.9624 77.5 78 77.5H82C85.0376 77.5 87.5 75.0376 87.5 72V68C87.5 64.9624 85.0376 62.5 82 62.5H78ZM77.5 68C77.5 67.7239 77.7239 67.5 78 67.5H82C82.2761 67.5 82.5 67.7239 82.5 68V72C82.5 72.2761 82.2761 72.5 82 72.5H78C77.7239 72.5 77.5 72.2761 77.5 72V68ZM38 82.5C34.9624 82.5 32.5 84.9624 32.5 88V92C32.5 95.0376 34.9624 97.5 38 97.5H42C45.0376 97.5 47.5 95.0376 47.5 92V88C47.5 84.9624 45.0376 82.5 42 82.5H38ZM37.5 88C37.5 87.7238 37.7239 87.5 38 87.5H42C42.2761 87.5 42.5 87.7238 42.5 88V92C42.5 92.2761 42.2761 92.5 42 92.5H38C37.7239 92.5 37.5 92.2761 37.5 92V88ZM58 82.5C54.9624 82.5 52.5 84.9624 52.5 88V92C52.5 95.0376 54.9624 97.5 58 97.5H62C65.0376 97.5 67.5 95.0376 67.5 92V88C67.5 84.9624 65.0376 82.5 62 82.5H58ZM57.5 88C57.5 87.7238 57.7239 87.5 58 87.5H62C62.2761 87.5 62.5 87.7238 62.5 88V92C62.5 92.2761 62.2761 92.5 62 92.5H58C57.7239 92.5 57.5 92.2761 57.5 92V88ZM77.5 88C77.5 87.7238 77.7239 87.5 78 87.5H82C82.2761 87.5 82.5 87.7238 82.5 88V92C82.5 92.2761 82.2761 92.5 82 92.5H78C77.7239 92.5 77.5 92.2761 77.5 92V88ZM78 82.5C74.9624 82.5 72.5 84.9624 72.5 88V92C72.5 95.0376 74.9624 97.5 78 97.5H82C85.0376 97.5 87.5 95.0376 87.5 92V88C87.5 84.9624 85.0376 82.5 82 82.5H78Z" fill="#303030"/>
</svg>
