<svg width="120" height="120" viewBox="0 0 120 120" fill="none" xmlns="http://www.w3.org/2000/svg">
<path fill-rule="evenodd" clip-rule="evenodd" d="M37.5 50C37.5 34.8122 49.8122 22.5 65 22.5C80.1878 22.5 92.5 34.8122 92.5 50C92.5 65.1878 80.1878 77.5 65 77.5C49.8122 77.5 37.5 65.1878 37.5 50ZM65 17.5C47.0507 17.5 32.5 32.0507 32.5 50C32.5 67.9493 47.0507 82.5 65 82.5C73.0746 82.5 80.4615 79.5553 86.1453 74.6812L104.445 92.981C105.421 93.9573 107.004 93.9573 107.981 92.981C108.957 92.0047 108.957 90.4217 107.981 89.4454L89.6809 71.1457C94.5552 65.4619 97.5 58.0748 97.5 50C97.5 32.0507 82.9492 17.5 65 17.5ZM20 77.5C18.6193 77.5 17.5 78.6193 17.5 80C17.5 81.3807 18.6193 82.5 20 82.5H40C41.3807 82.5 42.5 81.3807 42.5 80C42.5 78.6193 41.3807 77.5 40 77.5H20ZM20 87.5C18.6193 87.5 17.5 88.6193 17.5 90C17.5 91.3807 18.6193 92.5 20 92.5H50C51.3807 92.5 52.5 91.3807 52.5 90C52.5 88.6193 51.3807 87.5 50 87.5H20ZM17.5 100C17.5 98.6193 18.6193 97.5 20 97.5H60C61.3807 97.5 62.5 98.6193 62.5 100C62.5 101.381 61.3807 102.5 60 102.5H20C18.6193 102.5 17.5 101.381 17.5 100Z" fill="#303030"/>
</svg>
