<svg width="120" height="120" viewBox="0 0 120 120" fill="none" xmlns="http://www.w3.org/2000/svg">
<path fill-rule="evenodd" clip-rule="evenodd" d="M7.5 20C7.5 13.0964 13.0964 7.5 20 7.5H100C106.904 7.5 112.5 13.0964 112.5 20V105.146C112.5 109.234 108.197 111.894 104.54 110.065L89.4098 102.5H20C13.0964 102.5 7.5 96.9036 7.5 90V20ZM20 12.5C15.8579 12.5 12.5 15.8579 12.5 20V90C12.5 94.1421 15.8579 97.5 20 97.5H90.5902L106.776 105.593C107.109 105.759 107.5 105.518 107.5 105.146V20C107.5 15.8579 104.142 12.5 100 12.5H20ZM35 32.5C33.6193 32.5 32.5 33.6193 32.5 35C32.5 36.3807 33.6193 37.5 35 37.5H85C86.3807 37.5 87.5 36.3807 87.5 35C87.5 33.6193 86.3807 32.5 85 32.5H35ZM27.5 35C27.5 30.8579 30.8579 27.5 35 27.5H85C89.1421 27.5 92.5 30.8579 92.5 35C92.5 39.1421 89.1421 42.5 85 42.5H35C30.8579 42.5 27.5 39.1421 27.5 35ZM35 52.5C33.6193 52.5 32.5 53.6193 32.5 55C32.5 56.3807 33.6193 57.5 35 57.5H65C66.3807 57.5 67.5 56.3807 67.5 55C67.5 53.6193 66.3807 52.5 65 52.5H35ZM27.5 55C27.5 50.8579 30.8579 47.5 35 47.5H65C69.1421 47.5 72.5 50.8579 72.5 55C72.5 59.1421 69.1421 62.5 65 62.5H35C30.8579 62.5 27.5 59.1421 27.5 55ZM27.5 75C27.5 70.8579 30.8579 67.5 35 67.5H75C79.1421 67.5 82.5 70.8579 82.5 75C82.5 79.1421 79.1421 82.5 75 82.5H35C30.8579 82.5 27.5 79.1421 27.5 75ZM35 72.5C33.6193 72.5 32.5 73.6193 32.5 75C32.5 76.3807 33.6193 77.5 35 77.5H75C76.3807 77.5 77.5 76.3807 77.5 75C77.5 73.6193 76.3807 72.5 75 72.5H35Z" fill="#303030"/>
</svg>
