<svg width="28" height="28" viewBox="0 0 28 28" fill="none" xmlns="http://www.w3.org/2000/svg">
<path fill-rule="evenodd" clip-rule="evenodd" d="M8.16732 3.50004C8.16732 2.85571 8.68965 2.33337 9.33398 2.33337C9.97832 2.33337 10.5007 2.85571 10.5007 3.50004V5.83337C10.5007 6.47771 9.97832 7.00004 9.33398 7.00004C8.68965 7.00004 8.16732 6.47771 8.16732 5.83337V3.50004ZM17.5007 3.50004C17.5007 2.85571 18.023 2.33337 18.6673 2.33337C19.3116 2.33337 19.834 2.85571 19.834 3.50004V5.83337C19.834 6.47771 19.3116 7.00004 18.6673 7.00004C18.023 7.00004 17.5007 6.47771 17.5007 5.83337V3.50004ZM16.334 6.63546C16.334 5.54815 15.4525 4.66671 14.3652 4.66671H13.6361C12.5488 4.66671 11.6673 5.54815 11.6673 6.63546C11.6673 7.72277 10.7859 8.60421 9.69857 8.60421H8.9694C7.88209 8.60421 7.00065 7.72277 7.00065 6.63546C7.00065 5.54815 6.11921 4.66671 5.0319 4.66671H4.33398C3.22941 4.66671 2.33398 5.56214 2.33398 6.66671V23.6667C2.33398 24.7713 3.22941 25.6667 4.33398 25.6667H23.6673C24.7719 25.6667 25.6673 24.7713 25.6673 23.6667V6.66671C25.6673 5.56214 24.7719 4.66671 23.6673 4.66671H22.9694C21.8821 4.66671 21.0007 5.54815 21.0007 6.63546C21.0007 7.72277 20.1192 8.60421 19.0319 8.60421H18.3027C17.2154 8.60421 16.334 7.72277 16.334 6.63546ZM8.76732 14C8.43595 14 8.16732 14.2687 8.16732 14.6V15.7334C8.16732 16.0647 8.43595 16.3334 8.76732 16.3334H9.90065C10.232 16.3334 10.5007 16.0647 10.5007 15.7334V14.6C10.5007 14.2687 10.232 14 9.90065 14H8.76732ZM8.76732 18.6667C8.43595 18.6667 8.16732 18.9353 8.16732 19.2667V20.4C8.16732 20.7314 8.43595 21 8.76732 21H9.90065C10.232 21 10.5007 20.7314 10.5007 20.4V19.2667C10.5007 18.9353 10.232 18.6667 9.90065 18.6667H8.76732ZM13.434 18.6667C13.1026 18.6667 12.834 18.9353 12.834 19.2667V20.4C12.834 20.7314 13.1026 21 13.434 21H14.5673C14.8987 21 15.1673 20.7314 15.1673 20.4V19.2667C15.1673 18.9353 14.8987 18.6667 14.5673 18.6667H13.434ZM17.5007 19.2667C17.5007 18.9353 17.7693 18.6667 18.1007 18.6667H19.234C19.5654 18.6667 19.834 18.9353 19.834 19.2667V20.4C19.834 20.7314 19.5654 21 19.234 21H18.1006C17.7693 21 17.5007 20.7314 17.5007 20.4V19.2667ZM12.834 14.6C12.834 14.2687 13.1026 14 13.434 14H14.5673C14.8987 14 15.1673 14.2687 15.1673 14.6V15.7334C15.1673 16.0647 14.8987 16.3334 14.5673 16.3334H13.434C13.1026 16.3334 12.834 16.0647 12.834 15.7334V14.6ZM18.1007 14C17.7693 14 17.5007 14.2687 17.5007 14.6V15.7334C17.5007 16.0647 17.7693 16.3334 18.1006 16.3334H19.234C19.5654 16.3334 19.834 16.0647 19.834 15.7334V14.6C19.834 14.2687 19.5654 14 19.234 14H18.1007Z" fill="#A0A0A0"/>
</svg>
