<svg width="32" height="32" viewBox="0 0 32 32" fill="none" xmlns="http://www.w3.org/2000/svg">
<path d="M20.3332 7.99984C20.3332 10.3931 18.3931 12.3332 15.9999 12.3332C13.6067 12.3332 11.6666 10.3931 11.6666 7.99984C11.6666 5.6066 13.6067 3.6665 15.9999 3.6665C18.3931 3.6665 20.3332 5.6066 20.3332 7.99984ZM6.60533 28.3332C5.42622 28.3332 4.61996 27.1423 5.05787 26.0475L8.25787 18.0475C8.51098 17.4148 9.12382 16.9998 9.80533 16.9998H22.1945C22.876 16.9998 23.4888 17.4148 23.742 18.0475L26.9419 26.0475C27.3799 27.1423 26.5736 28.3332 25.3945 28.3332H6.60533Z" stroke="#A0A0A0" stroke-width="2"/>
</svg>
