<svg width="28" height="28" viewBox="0 0 28 28" fill="none" xmlns="http://www.w3.org/2000/svg">
<g clip-path="url(#clip0_263_89)">
<path fill-rule="evenodd" clip-rule="evenodd" d="M8.9121 11.9006C9.1447 13.4326 9.98944 15.1768 11.4894 16.6767C12.9894 18.1767 14.7336 19.0214 16.2655 19.254C16.8826 19.3477 17.4401 19.3416 17.9329 19.2539C17.8702 18.8312 18.0092 18.4066 18.4491 17.9667C19.5674 16.8484 22.2073 16.0552 23.3463 17.1942C24.4853 18.3332 24.5021 20.1632 23.3838 21.2815C23.3116 21.3537 23.2364 21.4212 23.1586 21.484C23.1034 21.5542 23.0435 21.6218 22.9788 21.6865C21.0126 23.6527 18.27 24.2231 15.6536 23.8258C13.038 23.4287 10.3945 22.0615 8.24958 19.9166C6.10466 17.7717 4.73746 15.1281 4.34033 12.5126C3.94308 9.89616 4.51349 7.15351 6.47967 5.18732C6.54434 5.12266 6.61198 5.06273 6.68217 5.00755C6.74493 4.92976 6.81242 4.85457 6.88465 4.78234C8.00297 3.66402 9.83291 3.68081 10.9719 4.81984C12.111 5.95887 11.7303 9.01125 10.612 10.1296C10.0853 10.6562 9.48893 10.66 8.88636 10.3976C8.8244 10.849 8.82868 11.3512 8.9121 11.9006Z" fill="#A0A0A0"/>
</g>
<defs>
<clipPath id="clip0_263_89">
<rect width="28" height="28" fill="white"/>
</clipPath>
</defs>
</svg>
