<svg width="14" height="20" viewBox="0 0 14 20" fill="none" xmlns="http://www.w3.org/2000/svg">
<path fill-rule="evenodd" clip-rule="evenodd" d="M1.5 0.5C1.5 0.223858 1.27614 0 1 0C0.723858 0 0.5 0.223858 0.5 0.5V8.5C0.5 12.0899 3.41015 15 7 15H11.7929L8.14645 18.6464C7.95118 18.8417 7.95118 19.1583 8.14645 19.3536C8.34171 19.5488 8.65829 19.5488 8.85355 19.3536L13.3536 14.8536L13.7071 14.5L13.3536 14.1464L8.85355 9.64645C8.65829 9.45118 8.34171 9.45118 8.14645 9.64645C7.95118 9.84171 7.95118 10.1583 8.14645 10.3536L11.7929 14H7C3.96243 14 1.5 11.5376 1.5 8.5V0.5Z" fill="#A0A0A0"/>
</svg>
