<svg width="16" height="16" viewBox="0 0 16 16" fill="none" xmlns="http://www.w3.org/2000/svg">
<path fill-rule="evenodd" clip-rule="evenodd" d="M1.62378 7.30701C1.62378 4.16825 4.16825 1.62378 7.30701 1.62378C10.4458 1.62378 12.9902 4.16825 12.9902 7.30701C12.9902 10.4458 10.4458 12.9902 7.30701 12.9902C4.16825 12.9902 1.62378 10.4458 1.62378 7.30701ZM7.30701 0C3.27146 0 0 3.27146 0 7.30701C0 11.3426 3.27146 14.614 7.30701 14.614C9.03227 14.614 10.6179 14.0161 11.8679 13.0162L14.8518 16L16 14.8518L13.0161 11.868C14.0161 10.6179 14.614 9.0323 14.614 7.30701C14.614 3.27146 11.3426 0 7.30701 0Z" fill="#303030"/>
</svg>
