<svg width="32" height="32" viewBox="0 0 32 32" fill="none" xmlns="http://www.w3.org/2000/svg">
<rect width="32" height="32" fill="white"/>
<path fill-rule="evenodd" clip-rule="evenodd" d="M16.9332 7.58678L19.3399 9.99348C19.7044 10.358 20.2954 10.358 20.6599 9.99348C21.0244 9.62899 21.0244 9.03804 20.6599 8.67355L17.037 5.05067C16.4642 4.4779 15.5356 4.4779 14.9628 5.05067L11.3399 8.67355C10.9754 9.03804 10.9754 9.62899 11.3399 9.99348C11.7044 10.358 12.2954 10.358 12.6599 9.99348L15.0666 7.58678V18.6668C15.0666 19.1823 15.4844 19.6002 15.9999 19.6002C16.5154 19.6002 16.9332 19.1823 16.9332 18.6668V7.58678ZM7.46657 16.9335C6.80383 16.9335 6.26657 17.4708 6.26657 18.1335V24.5335C6.26657 25.1963 6.80383 25.7335 7.46657 25.7335H24.5332C25.196 25.7335 25.7332 25.1963 25.7332 24.5335V18.1335C25.7332 17.4708 25.196 16.9335 24.5332 16.9335H22.6666C22.1511 16.9335 21.7332 16.5156 21.7332 16.0002C21.7332 15.4847 22.1511 15.0668 22.6666 15.0668H24.5332C26.2269 15.0668 27.5999 16.4398 27.5999 18.1335V24.5335C27.5999 26.2272 26.2269 27.6002 24.5332 27.6002H7.46657C5.7729 27.6002 4.3999 26.2272 4.3999 24.5335V18.1335C4.3999 16.4398 5.7729 15.0668 7.46657 15.0668H10.6666C11.182 15.0668 11.5999 15.4847 11.5999 16.0002C11.5999 16.5156 11.182 16.9335 10.6666 16.9335H7.46657Z" fill="#A0A0A0"/>
</svg>
