<svg width="207" height="231" viewBox="0 0 207 231" fill="none" xmlns="http://www.w3.org/2000/svg">
<path fill-rule="evenodd" clip-rule="evenodd" d="M129.047 102.667C110.565 102.667 95.2685 117.037 94.1156 135.484L90.3333 196H84.5C81.2783 196 78.6666 198.612 78.6666 201.833V213.5C78.6666 216.722 81.2783 219.333 84.5 219.333H189.5C192.722 219.333 195.333 216.722 195.333 213.5V201.833C195.333 198.612 192.722 196 189.5 196H183.667L179.884 135.484C178.731 117.037 163.435 102.667 144.952 102.667H129.047Z" fill="#A1F394"/>
<path fill-rule="evenodd" clip-rule="evenodd" d="M117.467 124.361C118.521 125.579 118.387 127.421 117.169 128.475C114.668 130.637 112.739 134.234 111.534 138.945C110.339 143.617 109.927 149.126 110.248 154.772C110.339 156.38 109.109 157.758 107.501 157.85C105.893 157.941 104.515 156.711 104.424 155.103C104.077 149.004 104.508 142.876 105.883 137.5C107.248 132.162 109.614 127.296 113.353 124.063C114.571 123.009 116.413 123.142 117.467 124.361Z" fill="#303030"/>
<path d="M189.67 1.35218L160.442 9.29536L150.759 32.9151L157.659 32.0305L146.348 60.0548L151.092 59.4465L140.33 88.3329L171.4 50.3158L165.794 51.0346L182.279 22.3468L175.811 23.1762L189.67 1.35218Z" fill="#A1F394"/>
<path d="M79.3785 0.000125581L64.4989 26.3804L74.5055 49.8651L78.7233 44.3331L90.7214 72.07L93.6211 68.2667L106.618 96.2186L101.39 47.3996L97.9629 51.8944L89.1281 20.0085L85.1739 25.1948L79.3785 0.000125581Z" fill="#A1F394"/>
<path d="M5.86684 55.7997L7.07533 86.0629L27.9326 100.782L28.6128 93.8584L53.3994 111.148L53.8671 106.388L79.6166 123.335L49.5073 84.5525L48.9546 90.1776L24.6781 67.6961L24.0404 74.1866L5.86684 55.7997Z" fill="#A1F394"/>
</svg>
