<svg width="62" height="68" viewBox="0 0 62 68" fill="none" xmlns="http://www.w3.org/2000/svg">
<path fill-rule="evenodd" clip-rule="evenodd" d="M31 27.3332C38.3638 27.3332 44.3334 21.3636 44.3334 13.9998C44.3334 6.63604 38.3638 0.666504 31 0.666504C23.6362 0.666504 17.6667 6.63604 17.6667 13.9998C17.6667 21.3636 23.6362 27.3332 31 27.3332ZM1.32373 58.1906C-0.427909 62.5697 2.79714 67.3332 7.51357 67.3332H54.4865C59.2029 67.3332 62.4279 62.5697 60.6763 58.1906L52.6763 38.1906C51.6639 35.6595 49.2125 33.9998 46.4865 33.9998H15.5136C12.7875 33.9998 10.3361 35.6595 9.32373 38.1906L1.32373 58.1906Z" fill="#A0A0A0"/>
</svg>
