<svg width="26" height="28" viewBox="0 0 26 28" fill="none" xmlns="http://www.w3.org/2000/svg">
<path d="M17.3332 6.00033C17.3332 8.39356 15.3931 10.3337 12.9999 10.3337C10.6067 10.3337 8.66658 8.39356 8.66658 6.00033C8.66658 3.60709 10.6067 1.66699 12.9999 1.66699C15.3931 1.66699 17.3332 3.60709 17.3332 6.00033ZM3.60533 26.3337C2.42622 26.3337 1.61996 25.1428 2.05787 24.048L5.25787 16.048C5.51098 15.4152 6.12382 15.0003 6.80533 15.0003H19.1945C19.876 15.0003 20.4888 15.4152 20.742 16.048L23.9419 24.048C24.3799 25.1428 23.5736 26.3337 22.3945 26.3337H3.60533Z" stroke="#303030" stroke-width="2"/>
</svg>
